<mxfile host="app.diagrams.net" modified="2023-11-27T10:44:13.018Z" agent="Mozilla/5.0 (Windows NT 10.0; Win64; x64) AppleWebKit/537.36 (KHTML, like Gecko) Chrome/119.0.0.0 Safari/537.36" etag="olS_Iuk_Uzv_ymLCzmFD" version="22.1.4" type="device">
  <diagram name="Page-1" id="W-rJjuYwLJcxBADPdN3y">
    <mxGraphModel dx="1900" dy="1666" grid="1" gridSize="10" guides="1" tooltips="1" connect="1" arrows="1" fold="1" page="1" pageScale="1" pageWidth="850" pageHeight="1100" math="0" shadow="0">
      <root>
        <mxCell id="0" />
        <mxCell id="1" parent="0" />
        <mxCell id="8ZlwR4q3Fmv5JeW5Ks84-13" value="" style="edgeStyle=orthogonalEdgeStyle;rounded=0;orthogonalLoop=1;jettySize=auto;html=1;" parent="1" edge="1">
          <mxGeometry relative="1" as="geometry">
            <mxPoint x="760" y="85" as="sourcePoint" />
            <mxPoint x="760" y="85" as="targetPoint" />
          </mxGeometry>
        </mxCell>
        <mxCell id="8ZlwR4q3Fmv5JeW5Ks84-10" value="&lt;font style=&quot;font-size: 17px;&quot;&gt;MySQL DB&lt;/font&gt;" style="strokeWidth=2;html=1;shape=mxgraph.flowchart.database;whiteSpace=wrap;fillColor=#f8cecc;strokeColor=#b85450;" parent="1" vertex="1">
          <mxGeometry x="840" y="40" width="200" height="120" as="geometry" />
        </mxCell>
        <mxCell id="8ZlwR4q3Fmv5JeW5Ks84-11" value="&lt;font style=&quot;font-size: 18px;&quot;&gt;Mongo DB&lt;/font&gt;" style="strokeWidth=2;html=1;shape=mxgraph.flowchart.database;whiteSpace=wrap;fillColor=#f8cecc;strokeColor=#b85450;" parent="1" vertex="1">
          <mxGeometry x="840" y="200" width="200" height="400" as="geometry" />
        </mxCell>
        <mxCell id="8ZlwR4q3Fmv5JeW5Ks84-30" value="Registration" style="rounded=1;whiteSpace=wrap;html=1;fillColor=#e1d5e7;strokeColor=#9673a6;" parent="1" vertex="1">
          <mxGeometry x="40" y="40" width="120" height="40" as="geometry" />
        </mxCell>
        <mxCell id="8ZlwR4q3Fmv5JeW5Ks84-31" value="Login" style="rounded=1;whiteSpace=wrap;html=1;fillColor=#e1d5e7;strokeColor=#9673a6;" parent="1" vertex="1">
          <mxGeometry x="40" y="100" width="120" height="40" as="geometry" />
        </mxCell>
        <mxCell id="8ZlwR4q3Fmv5JeW5Ks84-35" value="DashBoard" style="rounded=1;whiteSpace=wrap;html=1;fillColor=#e1d5e7;strokeColor=#9673a6;" parent="1" vertex="1">
          <mxGeometry x="-160" y="230" width="120" height="40" as="geometry" />
        </mxCell>
        <mxCell id="8ZlwR4q3Fmv5JeW5Ks84-39" value="Board List" style="rounded=1;whiteSpace=wrap;html=1;fillColor=#e1d5e7;strokeColor=#9673a6;" parent="1" vertex="1">
          <mxGeometry x="40" y="200" width="120" height="40" as="geometry" />
        </mxCell>
        <mxCell id="8ZlwR4q3Fmv5JeW5Ks84-41" value="New / Edit Board" style="rounded=1;whiteSpace=wrap;html=1;fillColor=#e1d5e7;strokeColor=#9673a6;" parent="1" vertex="1">
          <mxGeometry x="40" y="320" width="120" height="40" as="geometry" />
        </mxCell>
        <mxCell id="8ZlwR4q3Fmv5JeW5Ks84-45" value="Notification" style="rounded=1;whiteSpace=wrap;html=1;fillColor=#e1d5e7;strokeColor=#9673a6;" parent="1" vertex="1">
          <mxGeometry x="40" y="500" width="120" height="40" as="geometry" />
        </mxCell>
        <mxCell id="8ZlwR4q3Fmv5JeW5Ks84-48" value="New / Edit Stage" style="rounded=1;whiteSpace=wrap;html=1;fillColor=#e1d5e7;strokeColor=#9673a6;" parent="1" vertex="1">
          <mxGeometry x="40" y="380" width="120" height="40" as="geometry" />
        </mxCell>
        <mxCell id="8ZlwR4q3Fmv5JeW5Ks84-49" value="New / Edit Task" style="rounded=1;whiteSpace=wrap;html=1;fillColor=#e1d5e7;strokeColor=#9673a6;" parent="1" vertex="1">
          <mxGeometry x="40" y="440" width="120" height="40" as="geometry" />
        </mxCell>
        <mxCell id="aYfCvMg9gparcZw2DbsW-5" value="&lt;h1&gt;Kanban Project Architecture&lt;/h1&gt;" style="text;html=1;strokeColor=none;fillColor=none;spacing=5;spacingTop=-20;whiteSpace=wrap;overflow=hidden;rounded=0;" parent="1" vertex="1">
          <mxGeometry x="297.5" y="-50" width="380" height="50" as="geometry" />
        </mxCell>
        <mxCell id="aYfCvMg9gparcZw2DbsW-12" value="" style="endArrow=classic;html=1;rounded=0;exitX=1;exitY=0.5;exitDx=0;exitDy=0;entryX=-0.003;entryY=0.157;entryDx=0;entryDy=0;entryPerimeter=0;fillColor=#d5e8d4;strokeColor=#82b366;" parent="1" source="8ZlwR4q3Fmv5JeW5Ks84-30" edge="1">
          <mxGeometry relative="1" as="geometry">
            <mxPoint x="190" y="59.5" as="sourcePoint" />
            <mxPoint x="519.6400000000001" y="58.83999999999992" as="targetPoint" />
          </mxGeometry>
        </mxCell>
        <mxCell id="aYfCvMg9gparcZw2DbsW-13" value="New User" style="edgeLabel;resizable=0;html=1;align=center;verticalAlign=middle;" parent="aYfCvMg9gparcZw2DbsW-12" connectable="0" vertex="1">
          <mxGeometry relative="1" as="geometry" />
        </mxCell>
        <mxCell id="aYfCvMg9gparcZw2DbsW-14" value="" style="endArrow=classic;html=1;rounded=0;exitX=1;exitY=0.5;exitDx=0;exitDy=0;entryX=-0.01;entryY=0.663;entryDx=0;entryDy=0;entryPerimeter=0;fillColor=#d5e8d4;strokeColor=#82b366;" parent="1" source="8ZlwR4q3Fmv5JeW5Ks84-31" target="aYfCvMg9gparcZw2DbsW-47" edge="1">
          <mxGeometry relative="1" as="geometry">
            <mxPoint x="180" y="150" as="sourcePoint" />
            <mxPoint x="470" y="120" as="targetPoint" />
          </mxGeometry>
        </mxCell>
        <mxCell id="aYfCvMg9gparcZw2DbsW-15" value="Login user" style="edgeLabel;resizable=0;html=1;align=center;verticalAlign=middle;" parent="aYfCvMg9gparcZw2DbsW-14" connectable="0" vertex="1">
          <mxGeometry relative="1" as="geometry" />
        </mxCell>
        <mxCell id="aYfCvMg9gparcZw2DbsW-16" value="&lt;h1&gt;Kanban Backend Architecture&lt;/h1&gt;" style="text;html=1;strokeColor=none;fillColor=none;spacing=5;spacingTop=-20;whiteSpace=wrap;overflow=hidden;rounded=0;" parent="1" vertex="1">
          <mxGeometry x="490" y="-1090" width="350" height="60" as="geometry" />
        </mxCell>
        <mxCell id="aYfCvMg9gparcZw2DbsW-18" value="Client" style="whiteSpace=wrap;html=1;align=center;fillColor=#e1d5e7;strokeColor=#9673a6;" parent="1" vertex="1">
          <mxGeometry x="20" y="-880" width="100" height="80" as="geometry" />
        </mxCell>
        <mxCell id="aYfCvMg9gparcZw2DbsW-19" value="API Gateway Service" style="rounded=0;whiteSpace=wrap;html=1;fillColor=#dae8fc;strokeColor=#6c8ebf;" parent="1" vertex="1">
          <mxGeometry x="240" y="-1000" width="120" height="320" as="geometry" />
        </mxCell>
        <mxCell id="aYfCvMg9gparcZw2DbsW-20" value="Eureka Service" style="rounded=0;whiteSpace=wrap;html=1;fillColor=#dae8fc;strokeColor=#6c8ebf;" parent="1" vertex="1">
          <mxGeometry x="400" y="-640" width="160" height="80" as="geometry" />
        </mxCell>
        <mxCell id="aYfCvMg9gparcZw2DbsW-21" value="&lt;font style=&quot;font-size: 15px;&quot;&gt;MySQL DB&lt;/font&gt;" style="strokeWidth=2;html=1;shape=mxgraph.flowchart.database;whiteSpace=wrap;fillColor=#f8cecc;strokeColor=#b85450;" parent="1" vertex="1">
          <mxGeometry x="950" y="-990" width="130" height="90" as="geometry" />
        </mxCell>
        <mxCell id="aYfCvMg9gparcZw2DbsW-22" value="&lt;font style=&quot;font-size: 15px;&quot;&gt;Mongo DB&lt;/font&gt;" style="strokeWidth=2;html=1;shape=mxgraph.flowchart.database;whiteSpace=wrap;fillColor=#f8cecc;strokeColor=#b85450;" parent="1" vertex="1">
          <mxGeometry x="950" y="-870" width="130" height="200" as="geometry" />
        </mxCell>
        <mxCell id="aYfCvMg9gparcZw2DbsW-23" value="User Authentication Service" style="rounded=0;whiteSpace=wrap;html=1;fillColor=#dae8fc;strokeColor=#6c8ebf;" parent="1" vertex="1">
          <mxGeometry x="640" y="-960" width="200" height="40" as="geometry" />
        </mxCell>
        <mxCell id="aYfCvMg9gparcZw2DbsW-24" value="Kanban Board Service" style="rounded=0;whiteSpace=wrap;html=1;fillColor=#dae8fc;strokeColor=#6c8ebf;" parent="1" vertex="1">
          <mxGeometry x="640" y="-840" width="200" height="40" as="geometry" />
        </mxCell>
        <mxCell id="aYfCvMg9gparcZw2DbsW-25" value="Notification Service" style="rounded=0;whiteSpace=wrap;html=1;fillColor=#dae8fc;strokeColor=#6c8ebf;" parent="1" vertex="1">
          <mxGeometry x="640" y="-720" width="200" height="40" as="geometry" />
        </mxCell>
        <mxCell id="aYfCvMg9gparcZw2DbsW-28" value="" style="endArrow=classic;html=1;rounded=0;entryX=0.023;entryY=0.409;entryDx=0;entryDy=0;entryPerimeter=0;fillColor=#dae8fc;strokeColor=#6c8ebf;" parent="1" target="aYfCvMg9gparcZw2DbsW-19" edge="1">
          <mxGeometry relative="1" as="geometry">
            <mxPoint x="120" y="-869" as="sourcePoint" />
            <mxPoint x="230" y="-870" as="targetPoint" />
          </mxGeometry>
        </mxCell>
        <mxCell id="aYfCvMg9gparcZw2DbsW-29" value="Request" style="edgeLabel;resizable=0;html=1;align=center;verticalAlign=middle;" parent="aYfCvMg9gparcZw2DbsW-28" connectable="0" vertex="1">
          <mxGeometry relative="1" as="geometry" />
        </mxCell>
        <mxCell id="aYfCvMg9gparcZw2DbsW-30" value="" style="endArrow=classic;html=1;rounded=0;entryX=1;entryY=0.75;entryDx=0;entryDy=0;exitX=0.01;exitY=0.564;exitDx=0;exitDy=0;exitPerimeter=0;fillColor=#d5e8d4;strokeColor=#82b366;" parent="1" edge="1">
          <mxGeometry relative="1" as="geometry">
            <mxPoint x="241.20000000000005" y="-809.52" as="sourcePoint" />
            <mxPoint x="120" y="-810" as="targetPoint" />
          </mxGeometry>
        </mxCell>
        <mxCell id="aYfCvMg9gparcZw2DbsW-31" value="Response" style="edgeLabel;resizable=0;html=1;align=center;verticalAlign=middle;" parent="aYfCvMg9gparcZw2DbsW-30" connectable="0" vertex="1">
          <mxGeometry relative="1" as="geometry" />
        </mxCell>
        <mxCell id="aYfCvMg9gparcZw2DbsW-32" value="" style="endArrow=classic;html=1;rounded=0;fillColor=#dae8fc;strokeColor=#6c8ebf;entryX=0;entryY=0.25;entryDx=0;entryDy=0;" parent="1" target="aYfCvMg9gparcZw2DbsW-23" edge="1">
          <mxGeometry relative="1" as="geometry">
            <mxPoint x="360" y="-950" as="sourcePoint" />
            <mxPoint x="440" y="-950" as="targetPoint" />
          </mxGeometry>
        </mxCell>
        <mxCell id="aYfCvMg9gparcZw2DbsW-33" value="Request" style="edgeLabel;resizable=0;html=1;align=center;verticalAlign=middle;" parent="aYfCvMg9gparcZw2DbsW-32" connectable="0" vertex="1">
          <mxGeometry relative="1" as="geometry">
            <mxPoint x="-20" as="offset" />
          </mxGeometry>
        </mxCell>
        <mxCell id="aYfCvMg9gparcZw2DbsW-34" value="" style="endArrow=classic;html=1;rounded=0;fillColor=#d5e8d4;strokeColor=#82b366;" parent="1" edge="1">
          <mxGeometry relative="1" as="geometry">
            <mxPoint x="640" y="-930" as="sourcePoint" />
            <mxPoint x="360" y="-930" as="targetPoint" />
          </mxGeometry>
        </mxCell>
        <mxCell id="aYfCvMg9gparcZw2DbsW-35" value="Response" style="edgeLabel;resizable=0;html=1;align=center;verticalAlign=middle;" parent="aYfCvMg9gparcZw2DbsW-34" connectable="0" vertex="1">
          <mxGeometry relative="1" as="geometry">
            <mxPoint x="-20" as="offset" />
          </mxGeometry>
        </mxCell>
        <mxCell id="aYfCvMg9gparcZw2DbsW-39" value="" style="endArrow=classic;startArrow=classic;html=1;rounded=0;entryX=0;entryY=0.556;entryDx=0;entryDy=0;entryPerimeter=0;exitX=1;exitY=0.5;exitDx=0;exitDy=0;fillColor=#e1d5e7;strokeColor=#9673a6;" parent="1" source="aYfCvMg9gparcZw2DbsW-23" target="aYfCvMg9gparcZw2DbsW-21" edge="1">
          <mxGeometry width="50" height="50" relative="1" as="geometry">
            <mxPoint x="850" y="-945" as="sourcePoint" />
            <mxPoint x="930" y="-945.5" as="targetPoint" />
          </mxGeometry>
        </mxCell>
        <mxCell id="aYfCvMg9gparcZw2DbsW-40" value="" style="endArrow=classic;startArrow=classic;html=1;rounded=0;entryX=0;entryY=0.556;entryDx=0;entryDy=0;entryPerimeter=0;exitX=1;exitY=0.5;exitDx=0;exitDy=0;fillColor=#e1d5e7;strokeColor=#9673a6;" parent="1" edge="1">
          <mxGeometry width="50" height="50" relative="1" as="geometry">
            <mxPoint x="840" y="-820.5" as="sourcePoint" />
            <mxPoint x="950" y="-820.5" as="targetPoint" />
          </mxGeometry>
        </mxCell>
        <mxCell id="aYfCvMg9gparcZw2DbsW-41" value="" style="endArrow=classic;startArrow=classic;html=1;rounded=0;entryX=0;entryY=0.556;entryDx=0;entryDy=0;entryPerimeter=0;exitX=1;exitY=0.5;exitDx=0;exitDy=0;fillColor=#e1d5e7;strokeColor=#9673a6;" parent="1" edge="1">
          <mxGeometry width="50" height="50" relative="1" as="geometry">
            <mxPoint x="840" y="-700.5" as="sourcePoint" />
            <mxPoint x="950" y="-700.5" as="targetPoint" />
          </mxGeometry>
        </mxCell>
        <mxCell id="aYfCvMg9gparcZw2DbsW-47" value="User Authentication Service" style="rounded=0;whiteSpace=wrap;html=1;fillColor=#dae8fc;strokeColor=#6c8ebf;" parent="1" vertex="1">
          <mxGeometry x="520" y="40" width="200" height="120" as="geometry" />
        </mxCell>
        <mxCell id="aYfCvMg9gparcZw2DbsW-49" style="edgeStyle=orthogonalEdgeStyle;rounded=0;orthogonalLoop=1;jettySize=auto;html=1;exitX=0.5;exitY=1;exitDx=0;exitDy=0;" parent="1" source="8ZlwR4q3Fmv5JeW5Ks84-49" target="8ZlwR4q3Fmv5JeW5Ks84-49" edge="1">
          <mxGeometry relative="1" as="geometry" />
        </mxCell>
        <mxCell id="aYfCvMg9gparcZw2DbsW-50" value="Kanban Board Service" style="rounded=0;whiteSpace=wrap;html=1;fillColor=#dae8fc;strokeColor=#6c8ebf;" parent="1" vertex="1">
          <mxGeometry x="520" y="200" width="200" height="160" as="geometry" />
        </mxCell>
        <mxCell id="aYfCvMg9gparcZw2DbsW-51" value="Notification Service" style="rounded=0;whiteSpace=wrap;html=1;fillColor=#dae8fc;strokeColor=#6c8ebf;" parent="1" vertex="1">
          <mxGeometry x="520" y="470" width="200" height="80" as="geometry" />
        </mxCell>
        <mxCell id="aYfCvMg9gparcZw2DbsW-52" value="" style="endArrow=classic;startArrow=classic;html=1;rounded=0;entryX=0;entryY=0.5;entryDx=0;entryDy=0;entryPerimeter=0;exitX=1;exitY=0.5;exitDx=0;exitDy=0;fillColor=#e1d5e7;strokeColor=#9673a6;" parent="1" target="8ZlwR4q3Fmv5JeW5Ks84-10" edge="1">
          <mxGeometry width="50" height="50" relative="1" as="geometry">
            <mxPoint x="720" y="100" as="sourcePoint" />
            <mxPoint x="830" y="100" as="targetPoint" />
          </mxGeometry>
        </mxCell>
        <mxCell id="aYfCvMg9gparcZw2DbsW-53" value="" style="endArrow=classic;startArrow=classic;html=1;rounded=0;entryX=0;entryY=0.5;entryDx=0;entryDy=0;entryPerimeter=0;exitX=1;exitY=0.5;exitDx=0;exitDy=0;fillColor=#e1d5e7;strokeColor=#9673a6;" parent="1" edge="1">
          <mxGeometry width="50" height="50" relative="1" as="geometry">
            <mxPoint x="720" y="279.5" as="sourcePoint" />
            <mxPoint x="840" y="279.5" as="targetPoint" />
          </mxGeometry>
        </mxCell>
        <mxCell id="aYfCvMg9gparcZw2DbsW-54" value="" style="endArrow=classic;startArrow=classic;html=1;rounded=0;entryX=0;entryY=0.5;entryDx=0;entryDy=0;entryPerimeter=0;exitX=1;exitY=0.5;exitDx=0;exitDy=0;fillColor=#e1d5e7;strokeColor=#9673a6;" parent="1" edge="1">
          <mxGeometry width="50" height="50" relative="1" as="geometry">
            <mxPoint x="720" y="519.5" as="sourcePoint" />
            <mxPoint x="840" y="519.5" as="targetPoint" />
          </mxGeometry>
        </mxCell>
        <mxCell id="aYfCvMg9gparcZw2DbsW-56" value="" style="endArrow=none;html=1;rounded=0;fillColor=#d5e8d4;strokeColor=#82b366;edgeStyle=orthogonalEdgeStyle;exitX=1;exitY=0.5;exitDx=0;exitDy=0;endFill=0;" parent="1" source="8ZlwR4q3Fmv5JeW5Ks84-39" edge="1">
          <mxGeometry relative="1" as="geometry">
            <mxPoint x="210" y="220" as="sourcePoint" />
            <mxPoint x="450" y="280" as="targetPoint" />
          </mxGeometry>
        </mxCell>
        <mxCell id="aYfCvMg9gparcZw2DbsW-57" value="Board List" style="edgeLabel;resizable=0;html=1;align=center;verticalAlign=middle;" parent="aYfCvMg9gparcZw2DbsW-56" connectable="0" vertex="1">
          <mxGeometry relative="1" as="geometry">
            <mxPoint x="-40" as="offset" />
          </mxGeometry>
        </mxCell>
        <mxCell id="aYfCvMg9gparcZw2DbsW-58" value="" style="endArrow=none;html=1;rounded=0;fillColor=#d5e8d4;strokeColor=#82b366;edgeStyle=orthogonalEdgeStyle;endFill=0;" parent="1" edge="1">
          <mxGeometry relative="1" as="geometry">
            <mxPoint x="160" y="341" as="sourcePoint" />
            <mxPoint x="460" y="280" as="targetPoint" />
          </mxGeometry>
        </mxCell>
        <mxCell id="aYfCvMg9gparcZw2DbsW-59" value="New / edit Board" style="edgeLabel;resizable=0;html=1;align=right;verticalAlign=middle;" parent="aYfCvMg9gparcZw2DbsW-58" connectable="0" vertex="1">
          <mxGeometry relative="1" as="geometry">
            <mxPoint x="-8" y="-1" as="offset" />
          </mxGeometry>
        </mxCell>
        <mxCell id="aYfCvMg9gparcZw2DbsW-60" value="" style="endArrow=none;html=1;rounded=0;fillColor=#d5e8d4;strokeColor=#82b366;edgeStyle=orthogonalEdgeStyle;endFill=0;" parent="1" edge="1">
          <mxGeometry relative="1" as="geometry">
            <mxPoint x="160" y="400.25" as="sourcePoint" />
            <mxPoint x="470" y="280" as="targetPoint" />
          </mxGeometry>
        </mxCell>
        <mxCell id="aYfCvMg9gparcZw2DbsW-61" value="New / edit Stage" style="edgeLabel;resizable=0;html=1;align=center;verticalAlign=middle;" parent="aYfCvMg9gparcZw2DbsW-60" connectable="0" vertex="1">
          <mxGeometry relative="1" as="geometry">
            <mxPoint x="-76" y="-1" as="offset" />
          </mxGeometry>
        </mxCell>
        <mxCell id="aYfCvMg9gparcZw2DbsW-62" value="" style="endArrow=none;html=1;rounded=0;fillColor=#d5e8d4;strokeColor=#82b366;edgeStyle=orthogonalEdgeStyle;endFill=0;" parent="1" edge="1">
          <mxGeometry relative="1" as="geometry">
            <mxPoint x="160" y="460.22" as="sourcePoint" />
            <mxPoint x="490" y="280" as="targetPoint" />
          </mxGeometry>
        </mxCell>
        <mxCell id="aYfCvMg9gparcZw2DbsW-63" value="New / edit Task" style="edgeLabel;resizable=0;html=1;align=right;verticalAlign=middle;" parent="aYfCvMg9gparcZw2DbsW-62" connectable="0" vertex="1">
          <mxGeometry relative="1" as="geometry">
            <mxPoint x="-81" y="-1" as="offset" />
          </mxGeometry>
        </mxCell>
        <mxCell id="aYfCvMg9gparcZw2DbsW-64" value="" style="endArrow=classic;html=1;rounded=0;fillColor=#d5e8d4;strokeColor=#82b366;edgeStyle=orthogonalEdgeStyle;endFill=1;exitX=1;exitY=0.5;exitDx=0;exitDy=0;startArrow=none;startFill=0;" parent="1" edge="1" source="8ZlwR4q3Fmv5JeW5Ks84-45">
          <mxGeometry relative="1" as="geometry">
            <mxPoint x="190" y="519.5" as="sourcePoint" />
            <mxPoint x="520" y="519.98" as="targetPoint" />
          </mxGeometry>
        </mxCell>
        <mxCell id="aYfCvMg9gparcZw2DbsW-65" value="Notification" style="edgeLabel;resizable=0;html=1;align=right;verticalAlign=middle;" parent="aYfCvMg9gparcZw2DbsW-64" connectable="0" vertex="1">
          <mxGeometry relative="1" as="geometry">
            <mxPoint x="-50" as="offset" />
          </mxGeometry>
        </mxCell>
        <mxCell id="aYfCvMg9gparcZw2DbsW-68" value="" style="endArrow=classic;html=1;rounded=0;entryX=0;entryY=0.5;entryDx=0;entryDy=0;fillColor=#d5e8d4;strokeColor=#82b366;exitX=1;exitY=0.5;exitDx=0;exitDy=0;" parent="1" source="xGsHVQtxTPe1MyjaPd6y-15" target="aYfCvMg9gparcZw2DbsW-50" edge="1">
          <mxGeometry width="50" height="50" relative="1" as="geometry">
            <mxPoint x="170" y="280" as="sourcePoint" />
            <mxPoint x="570" y="320" as="targetPoint" />
          </mxGeometry>
        </mxCell>
        <mxCell id="aYfCvMg9gparcZw2DbsW-71" value="" style="endArrow=classic;html=1;rounded=0;entryX=0.5;entryY=0;entryDx=0;entryDy=0;fillColor=#d5e8d4;strokeColor=#82b366;exitX=0.5;exitY=1;exitDx=0;exitDy=0;" parent="1" source="aYfCvMg9gparcZw2DbsW-50" target="aYfCvMg9gparcZw2DbsW-51" edge="1">
          <mxGeometry width="50" height="50" relative="1" as="geometry">
            <mxPoint x="460" y="399.5" as="sourcePoint" />
            <mxPoint x="820" y="399.5" as="targetPoint" />
          </mxGeometry>
        </mxCell>
        <mxCell id="3fmaiU_F7w8mvbfyJyPd-1" value="" style="endArrow=classic;html=1;rounded=0;fillColor=#dae8fc;strokeColor=#6c8ebf;entryX=0;entryY=0.25;entryDx=0;entryDy=0;" parent="1" edge="1">
          <mxGeometry relative="1" as="geometry">
            <mxPoint x="360" y="-710" as="sourcePoint" />
            <mxPoint x="640" y="-710" as="targetPoint" />
          </mxGeometry>
        </mxCell>
        <mxCell id="3fmaiU_F7w8mvbfyJyPd-2" value="Request" style="edgeLabel;resizable=0;html=1;align=center;verticalAlign=middle;" parent="3fmaiU_F7w8mvbfyJyPd-1" connectable="0" vertex="1">
          <mxGeometry relative="1" as="geometry">
            <mxPoint x="-20" as="offset" />
          </mxGeometry>
        </mxCell>
        <mxCell id="3fmaiU_F7w8mvbfyJyPd-3" value="" style="endArrow=classic;html=1;rounded=0;fillColor=#dae8fc;strokeColor=#6c8ebf;entryX=0;entryY=0.25;entryDx=0;entryDy=0;" parent="1" edge="1">
          <mxGeometry relative="1" as="geometry">
            <mxPoint x="360" y="-830" as="sourcePoint" />
            <mxPoint x="640" y="-830" as="targetPoint" />
          </mxGeometry>
        </mxCell>
        <mxCell id="3fmaiU_F7w8mvbfyJyPd-4" value="Request" style="edgeLabel;resizable=0;html=1;align=center;verticalAlign=middle;" parent="3fmaiU_F7w8mvbfyJyPd-3" connectable="0" vertex="1">
          <mxGeometry relative="1" as="geometry">
            <mxPoint x="-20" as="offset" />
          </mxGeometry>
        </mxCell>
        <mxCell id="3fmaiU_F7w8mvbfyJyPd-5" value="" style="endArrow=classic;html=1;rounded=0;fillColor=#d5e8d4;strokeColor=#82b366;" parent="1" edge="1">
          <mxGeometry relative="1" as="geometry">
            <mxPoint x="640" y="-810" as="sourcePoint" />
            <mxPoint x="360" y="-810" as="targetPoint" />
          </mxGeometry>
        </mxCell>
        <mxCell id="3fmaiU_F7w8mvbfyJyPd-6" value="Response" style="edgeLabel;resizable=0;html=1;align=center;verticalAlign=middle;" parent="3fmaiU_F7w8mvbfyJyPd-5" connectable="0" vertex="1">
          <mxGeometry relative="1" as="geometry">
            <mxPoint x="-20" as="offset" />
          </mxGeometry>
        </mxCell>
        <mxCell id="3fmaiU_F7w8mvbfyJyPd-7" value="" style="endArrow=classic;html=1;rounded=0;fillColor=#d5e8d4;strokeColor=#82b366;" parent="1" edge="1">
          <mxGeometry relative="1" as="geometry">
            <mxPoint x="640" y="-690" as="sourcePoint" />
            <mxPoint x="360" y="-690" as="targetPoint" />
          </mxGeometry>
        </mxCell>
        <mxCell id="3fmaiU_F7w8mvbfyJyPd-8" value="Response" style="edgeLabel;resizable=0;html=1;align=center;verticalAlign=middle;" parent="3fmaiU_F7w8mvbfyJyPd-7" connectable="0" vertex="1">
          <mxGeometry relative="1" as="geometry">
            <mxPoint x="-20" as="offset" />
          </mxGeometry>
        </mxCell>
        <mxCell id="3fmaiU_F7w8mvbfyJyPd-9" value="" style="endArrow=none;dashed=1;html=1;dashPattern=1 3;strokeWidth=2;rounded=0;exitX=0.5;exitY=0;exitDx=0;exitDy=0;startArrow=none;startFill=0;fillColor=#e1d5e7;strokeColor=#9673a6;" parent="1" source="aYfCvMg9gparcZw2DbsW-20" edge="1">
          <mxGeometry width="50" height="50" relative="1" as="geometry">
            <mxPoint x="590" y="-890" as="sourcePoint" />
            <mxPoint x="640" y="-940" as="targetPoint" />
          </mxGeometry>
        </mxCell>
        <mxCell id="3fmaiU_F7w8mvbfyJyPd-10" value="" style="endArrow=none;dashed=1;html=1;dashPattern=1 3;strokeWidth=2;rounded=0;exitX=0.5;exitY=0;exitDx=0;exitDy=0;entryX=0;entryY=0.5;entryDx=0;entryDy=0;fillColor=#e1d5e7;strokeColor=#9673a6;startArrow=none;startFill=0;" parent="1" source="aYfCvMg9gparcZw2DbsW-20" target="aYfCvMg9gparcZw2DbsW-24" edge="1">
          <mxGeometry width="50" height="50" relative="1" as="geometry">
            <mxPoint x="490" y="-630" as="sourcePoint" />
            <mxPoint x="650" y="-930" as="targetPoint" />
          </mxGeometry>
        </mxCell>
        <mxCell id="3fmaiU_F7w8mvbfyJyPd-11" value="" style="endArrow=none;dashed=1;html=1;dashPattern=1 3;strokeWidth=2;rounded=0;exitX=0.5;exitY=0;exitDx=0;exitDy=0;entryX=0;entryY=0.5;entryDx=0;entryDy=0;fillColor=#e1d5e7;strokeColor=#9673a6;startArrow=none;startFill=0;" parent="1" source="aYfCvMg9gparcZw2DbsW-20" target="aYfCvMg9gparcZw2DbsW-25" edge="1">
          <mxGeometry width="50" height="50" relative="1" as="geometry">
            <mxPoint x="500" y="-620" as="sourcePoint" />
            <mxPoint x="660" y="-920" as="targetPoint" />
          </mxGeometry>
        </mxCell>
        <mxCell id="3fmaiU_F7w8mvbfyJyPd-12" value="" style="endArrow=none;dashed=1;html=1;dashPattern=1 3;strokeWidth=2;rounded=0;exitX=0.5;exitY=0;exitDx=0;exitDy=0;entryX=1.003;entryY=0.561;entryDx=0;entryDy=0;entryPerimeter=0;endFill=0;startArrow=none;startFill=0;fillColor=#e1d5e7;strokeColor=#9673a6;" parent="1" source="aYfCvMg9gparcZw2DbsW-20" target="aYfCvMg9gparcZw2DbsW-19" edge="1">
          <mxGeometry width="50" height="50" relative="1" as="geometry">
            <mxPoint x="510" y="-610" as="sourcePoint" />
            <mxPoint x="670" y="-910" as="targetPoint" />
          </mxGeometry>
        </mxCell>
        <mxCell id="xGsHVQtxTPe1MyjaPd6y-1" value="" style="endArrow=classic;html=1;rounded=0;exitX=0.5;exitY=0;exitDx=0;exitDy=0;fillColor=#d5e8d4;strokeColor=#82b366;startArrow=classic;startFill=1;" edge="1" parent="1" source="aYfCvMg9gparcZw2DbsW-24">
          <mxGeometry relative="1" as="geometry">
            <mxPoint x="740" y="-845" as="sourcePoint" />
            <mxPoint x="741" y="-920" as="targetPoint" />
            <Array as="points">
              <mxPoint x="741" y="-885" />
            </Array>
          </mxGeometry>
        </mxCell>
        <mxCell id="xGsHVQtxTPe1MyjaPd6y-3" value="" style="endArrow=classic;html=1;rounded=0;exitX=0.5;exitY=0;exitDx=0;exitDy=0;fillColor=#d5e8d4;strokeColor=#82b366;startArrow=classic;startFill=1;" edge="1" parent="1">
          <mxGeometry relative="1" as="geometry">
            <mxPoint x="739.5" y="-720" as="sourcePoint" />
            <mxPoint x="740.5" y="-800" as="targetPoint" />
            <Array as="points" />
          </mxGeometry>
        </mxCell>
        <mxCell id="xGsHVQtxTPe1MyjaPd6y-4" value="Home" style="rounded=1;whiteSpace=wrap;html=1;fillColor=#e1d5e7;strokeColor=#9673a6;" vertex="1" parent="1">
          <mxGeometry x="-170" y="70" width="120" height="40" as="geometry" />
        </mxCell>
        <mxCell id="xGsHVQtxTPe1MyjaPd6y-6" value="" style="edgeStyle=elbowEdgeStyle;elbow=horizontal;endArrow=classic;html=1;curved=0;rounded=0;endSize=8;startSize=8;entryX=0;entryY=0.5;entryDx=0;entryDy=0;" edge="1" parent="1" target="8ZlwR4q3Fmv5JeW5Ks84-30">
          <mxGeometry width="50" height="50" relative="1" as="geometry">
            <mxPoint x="-50" y="90" as="sourcePoint" />
            <mxPoint y="40" as="targetPoint" />
          </mxGeometry>
        </mxCell>
        <mxCell id="xGsHVQtxTPe1MyjaPd6y-7" value="" style="edgeStyle=elbowEdgeStyle;elbow=horizontal;endArrow=classic;html=1;curved=0;rounded=0;endSize=8;startSize=8;entryX=0;entryY=0.5;entryDx=0;entryDy=0;" edge="1" parent="1" target="8ZlwR4q3Fmv5JeW5Ks84-31">
          <mxGeometry width="50" height="50" relative="1" as="geometry">
            <mxPoint x="-50" y="90" as="sourcePoint" />
            <mxPoint y="40" as="targetPoint" />
            <Array as="points" />
          </mxGeometry>
        </mxCell>
        <mxCell id="xGsHVQtxTPe1MyjaPd6y-8" value="View Board" style="rounded=1;whiteSpace=wrap;html=1;fillColor=#e1d5e7;strokeColor=#9673a6;" vertex="1" parent="1">
          <mxGeometry x="40" y="260" width="120" height="40" as="geometry" />
        </mxCell>
        <mxCell id="xGsHVQtxTPe1MyjaPd6y-9" value="" style="edgeStyle=elbowEdgeStyle;elbow=horizontal;endArrow=classic;html=1;curved=0;rounded=0;endSize=8;startSize=8;" edge="1" parent="1">
          <mxGeometry width="50" height="50" relative="1" as="geometry">
            <mxPoint x="-40" y="250" as="sourcePoint" />
            <mxPoint x="40" y="220" as="targetPoint" />
          </mxGeometry>
        </mxCell>
        <mxCell id="xGsHVQtxTPe1MyjaPd6y-10" value="" style="edgeStyle=elbowEdgeStyle;elbow=horizontal;endArrow=classic;html=1;curved=0;rounded=0;endSize=8;startSize=8;" edge="1" parent="1">
          <mxGeometry width="50" height="50" relative="1" as="geometry">
            <mxPoint x="-40" y="250" as="sourcePoint" />
            <mxPoint x="40" y="280" as="targetPoint" />
            <Array as="points">
              <mxPoint y="270" />
            </Array>
          </mxGeometry>
        </mxCell>
        <mxCell id="xGsHVQtxTPe1MyjaPd6y-14" value="" style="endArrow=classic;html=1;rounded=0;entryX=0;entryY=0.5;entryDx=0;entryDy=0;fillColor=#d5e8d4;strokeColor=#82b366;exitX=1;exitY=0.5;exitDx=0;exitDy=0;" edge="1" parent="1" source="xGsHVQtxTPe1MyjaPd6y-8" target="xGsHVQtxTPe1MyjaPd6y-12">
          <mxGeometry width="50" height="50" relative="1" as="geometry">
            <mxPoint x="160" y="280" as="sourcePoint" />
            <mxPoint x="520" y="280" as="targetPoint" />
          </mxGeometry>
        </mxCell>
        <mxCell id="xGsHVQtxTPe1MyjaPd6y-12" value="View Stage" style="rounded=1;whiteSpace=wrap;html=1;fillColor=#e1d5e7;strokeColor=#9673a6;" vertex="1" parent="1">
          <mxGeometry x="190" y="260" width="80" height="40" as="geometry" />
        </mxCell>
        <mxCell id="xGsHVQtxTPe1MyjaPd6y-16" value="" style="endArrow=classic;html=1;rounded=0;entryX=0;entryY=0.5;entryDx=0;entryDy=0;fillColor=#d5e8d4;strokeColor=#82b366;exitX=1;exitY=0.5;exitDx=0;exitDy=0;" edge="1" parent="1" source="xGsHVQtxTPe1MyjaPd6y-12" target="xGsHVQtxTPe1MyjaPd6y-15">
          <mxGeometry width="50" height="50" relative="1" as="geometry">
            <mxPoint x="270" y="280" as="sourcePoint" />
            <mxPoint x="520" y="280" as="targetPoint" />
          </mxGeometry>
        </mxCell>
        <mxCell id="xGsHVQtxTPe1MyjaPd6y-15" value="View Task" style="rounded=1;whiteSpace=wrap;html=1;fillColor=#e1d5e7;strokeColor=#9673a6;" vertex="1" parent="1">
          <mxGeometry x="290" y="260" width="80" height="40" as="geometry" />
        </mxCell>
        <mxCell id="xGsHVQtxTPe1MyjaPd6y-19" value="" style="endArrow=classic;html=1;rounded=0;entryX=0.5;entryY=0;entryDx=0;entryDy=0;fillColor=#d5e8d4;strokeColor=#82b366;startArrow=classic;startFill=1;" edge="1" parent="1">
          <mxGeometry width="50" height="50" relative="1" as="geometry">
            <mxPoint x="620" y="160" as="sourcePoint" />
            <mxPoint x="619.5" y="200" as="targetPoint" />
          </mxGeometry>
        </mxCell>
      </root>
    </mxGraphModel>
  </diagram>
</mxfile>
